<svg xmlns="http://www.w3.org/2000/svg"  viewBox="0 0 64 64" width="64px" height="64px"><linearGradient id="Vn9JQbvQGHELIr99Wf2ANa" x1="14" x2="14" y1="26" y2="34" gradientUnits="userSpaceOnUse" spreadMethod="reflect"><stop offset="0" stop-color="#6dc7ff"/><stop offset="1" stop-color="#e6abff"/></linearGradient><path fill="url(#Vn9JQbvQGHELIr99Wf2ANa)" d="M18,30.009c-0.012,2.172-1.722,3.998-4.016,3.991c-2.233-0.007-3.992-1.762-3.984-4.02 c0.008-2.207,1.74-3.98,4.001-3.98C16.255,26,17.992,27.796,18,30.009z"/><linearGradient id="Vn9JQbvQGHELIr99Wf2ANb" x1="31.999" x2="31.999" y1="7" y2="57" gradientUnits="userSpaceOnUse" spreadMethod="reflect"><stop offset="0" stop-color="#1a6dff"/><stop offset="1" stop-color="#c822ff"/></linearGradient><path fill="url(#Vn9JQbvQGHELIr99Wf2ANb)" d="M27.244,7.003C27.132,7.001,27.042,7,27,7c-4.177,0-9.658,1.327-11.038,1.832 c-1.775,0.65-2.854,1.899-3.205,3.712c-0.277,1.427-0.726,3.333-1.201,5.352c-0.39,1.659-0.793,3.369-1.125,4.921 c-2.7,1.318-4.423,4.066-4.434,7.145c-0.007,2.175,0.812,4.2,2.307,5.704c1.491,1.499,3.502,2.328,5.663,2.335 c0.009,0,0.017,0,0.026,0c4.465,0,7.979-3.5,8.004-7.988c-0.009-2.46-1.12-4.766-2.997-6.271l0.017-13.678 C21.257,9.549,24.463,9,27,9c0.134,0,0.263,0.004,0.397,0.005C31.283,9.084,52,10.516,52,32c0,18.193-15.699,23-24,23 c-8.574,0-13.439-2.83-13.485-2.857c-0.474-0.286-1.088-0.131-1.372,0.343c-0.284,0.474-0.131,1.088,0.343,1.372 C13.699,53.986,18.829,57,28,57c9.02,0,30-2.436,30-25C58,15.711,47.364,7.073,27.244,7.003z M19.998,30.01 C19.979,33.373,17.343,36,13.993,36c-0.006,0-0.013,0-0.02,0c-1.626-0.005-3.136-0.625-4.25-1.745 c-1.118-1.125-1.731-2.646-1.725-4.287c0.009-2.449,1.454-4.616,3.683-5.521c0.309-0.125,0.535-0.396,0.603-0.723 c0.345-1.655,0.79-3.545,1.22-5.372c0.48-2.038,0.933-3.963,1.218-5.429c0.217-1.123,0.813-1.806,1.929-2.215 c0.102-0.037,0.225-0.079,0.366-0.123L17,24.24c0,0.328,0.16,0.635,0.429,0.823C19.03,26.175,19.99,28.028,19.998,30.01z M45.41,51.142C50.285,47.304,54,41.242,54,32c0-10.431-4.616-16.5-10.032-20.043C51.961,15.492,56,22.189,56,32 C56,42.231,51.242,47.958,45.41,51.142z M21.445,48.179c-0.297,0.198-0.466,0.54-0.443,0.896s0.234,0.673,0.555,0.832 C21.647,49.952,23.81,51,27.599,51c0.542,0,2.055-0.172,3.019-0.683c1.137-0.601,1.731-1.587,1.719-2.851 c-0.008-0.739-0.135-1.495-0.379-2.246c-0.11-0.339-0.098-0.636,0.301-1.07c0.274-0.298,0.585-0.636,0.531-1.176 c-0.035-0.349-0.206-0.587-0.426-0.788c0.749-0.538,0.944-1.26,0.581-2.148c-0.031-0.076-0.065-0.15-0.1-0.224l-0.058-0.129 c-0.1-0.237-0.202-0.482-0.252-0.708c-0.06-0.271-0.033-0.281,0.175-0.36c0.39-0.148,0.786-0.284,1.181-0.419 c0.339-0.116,0.678-0.232,1.014-0.355c0.938-0.345,1.302-1.125,0.976-2.085c-0.148-0.436-0.384-0.767-0.645-1.133 c-1.334-1.887-2.211-3.373-3.274-5.301c-0.197-0.357-0.216-0.474-0.222-0.455c0.004-0.01,0.045-0.109,0.312-0.381 c0.597-0.607,0.916-1.371,0.947-2.266c0.017-0.478-0.042-0.976-0.177-1.479c-0.628-2.334-3.907-9.49-10.503-11.689 c-0.306-0.101-0.64-0.051-0.901,0.138C21.154,13.377,21,13.679,21,14l0.002,3.345c0.002,1.383,0.004,2.486-0.002,4.651 c-0.002,0.589,0.23,1.048,0.711,1.405C23.756,24.915,27,29.949,27,37.011C27,40.639,24.145,46.379,21.445,48.179z M29,37.011 c0-7.735-3.54-13.237-6-15.142c0.005-2.082,0.004-3.17,0.002-4.526l-0.001-1.855c4.982,2.426,7.47,8.223,7.887,9.772 c0.083,0.31,0.12,0.608,0.11,0.888c-0.014,0.398-0.129,0.687-0.375,0.937c-1.031,1.05-1.14,1.888-0.415,3.204 c1.098,1.99,2.004,3.527,3.45,5.57c0.061,0.085,0.118,0.165,0.169,0.245c-0.195,0.069-0.39,0.135-0.585,0.202 c-0.417,0.143-0.834,0.286-1.246,0.442c-1.157,0.44-1.687,1.435-1.417,2.661c0.089,0.401,0.239,0.761,0.361,1.05l0.092,0.207 c-0.125,0.079-0.249,0.16-0.361,0.254c-0.378,0.316-0.592,0.745-0.601,1.208c-0.007,0.389,0.13,0.76,0.392,1.066 c-0.578,0.813-0.716,1.701-0.408,2.646c0.181,0.558,0.276,1.112,0.281,1.647c0.005,0.506-0.185,0.814-0.655,1.063 C29.093,48.861,27.938,49,27.599,49c-1.518,0-2.731-0.188-3.599-0.391C26.691,45.818,29,40.674,29,37.011z"/><linearGradient id="Vn9JQbvQGHELIr99Wf2ANc" x1="37.381" x2="37.381" y1="13.056" y2="49.65" gradientUnits="userSpaceOnUse" spreadMethod="reflect"><stop offset="0" stop-color="#6dc7ff"/><stop offset="1" stop-color="#e6abff"/></linearGradient><path fill="url(#Vn9JQbvQGHELIr99Wf2ANc)" d="M26.762,13.056c4.903,3.344,7.38,8.9,7.99,11.167c0.186,0.695,0.268,1.391,0.244,2.067 c-0.037,1.035-0.336,1.988-0.875,2.802c0.858,1.527,1.64,2.811,2.743,4.371c0.297,0.417,0.666,0.936,0.909,1.65 c0.676,1.991-0.22,3.885-2.179,4.605c-0.193,0.071-0.387,0.14-0.588,0.209c0.222,0.906,0.123,1.776-0.274,2.533 c0.02,0.102,0.036,0.206,0.047,0.311c0.112,1.108-0.362,1.903-0.754,2.393c0.199,0.76,0.304,1.525,0.312,2.282 c0.008,0.794-0.153,1.535-0.454,2.203C42.667,47.583,48,40.008,48,32C48,21.976,39.167,13.056,26.762,13.056z"/></svg>